<svg width="512" height="512" viewBox="0 0 512 512" fill="none" xmlns="http://www.w3.org/2000/svg">
  <!-- Dark background -->
  <rect width="512" height="512" rx="100" fill="#191A23"/>
  
  <!-- Lime Green Medical Cross -->
  <path fill-rule="evenodd" clip-rule="evenodd" d="M186 112C186 98.7452 196.745 88 210 88H302C315.255 88 326 98.7452 326 112V186H400C413.255 186 424 196.745 424 210V302C424 315.255 413.255 326 400 326H326V400C326 413.255 315.255 424 302 424H210C196.745 424 186 413.255 186 400V326H112C98.7452 326 88 315.255 88 302V210C88 196.745 98.7452 186 112 186H186V112Z" fill="#b1ff00"/>

  <!-- Dark Heart inside Cross -->
  <path d="M256 314L245.8 304.717C209.6 271.936 186 250.536 186 224.237C186 202.837 202.8 186 224.2 186C236.3 186 248 191.732 256 200.726C264 191.732 275.7 186 287.8 186C309.2 186 326 202.837 326 224.237C326 250.536 302.4 271.936 266.2 304.815L256 314Z" fill="#191A23"/>
</svg>
